<svg width="13" height="26" viewBox="0 0 13 26" fill="none" xmlns="http://www.w3.org/2000/svg">
<path d="M10.843 25.9999C10.5655 26.0008 10.2913 25.9396 10.0406 25.8207C9.78988 25.7018 9.56899 25.5282 9.39417 25.3128L0.422554 14.171C0.149353 13.8387 0 13.4219 0 12.9918C0 12.5617 0.149353 12.1449 0.422554 11.8126L9.70994 0.670834C10.0252 0.29161 10.4783 0.0531301 10.9695 0.00785776C11.4606 -0.0374146 11.9497 0.114229 12.329 0.429428C12.7083 0.744627 12.9469 1.19756 12.9921 1.68859C13.0374 2.17962 12.8857 2.66853 12.5705 3.04775L4.26753 13.0011L12.2918 22.9544C12.519 23.227 12.6633 23.5589 12.7076 23.9109C12.752 24.2629 12.6945 24.6202 12.5421 24.9406C12.3897 25.261 12.1487 25.531 11.8476 25.7187C11.5464 25.9065 11.1978 26.004 10.843 25.9999Z" fill="black"/>
</svg>
